<svg width="24" height="24" viewBox="0 0 24 24" fill="none" xmlns="http://www.w3.org/2000/svg">
<path d="M3.66667 5.2H7V3.5H3.66667C3.22464 3.5 2.80072 3.67911 2.48816 3.99792C2.17559 4.31673 2 4.74913 2 5.2L2 8.6H3.66667V5.2ZM20.3333 3.5H17V5.2H20.3333V8.6H22V5.2C22 4.74913 21.8244 4.31673 21.5118 3.99792C21.1993 3.67911 20.7754 3.5 20.3333 3.5ZM3.66667 15.4H2V18.8C2 19.2509 2.17559 19.6833 2.48816 20.0021C2.80072 20.3209 3.22464 20.5 3.66667 20.5H7V18.8H3.66667V15.4ZM20.3333 18.8H17V20.5H20.3333C20.7754 20.5 21.1993 20.3209 21.5118 20.0021C21.8244 19.6833 22 19.2509 22 18.8V15.4H20.3333V18.8ZM5.33333 8.6V15.4C5.33333 15.8509 5.50893 16.2833 5.82149 16.6021C6.13405 16.9209 6.55797 17.1 7 17.1H17C17.442 17.1 17.8659 16.9209 18.1785 16.6021C18.4911 16.2833 18.6667 15.8509 18.6667 15.4V8.6C18.6667 8.14913 18.4911 7.71673 18.1785 7.39792C17.8659 7.07911 17.442 6.9 17 6.9H7C6.55797 6.9 6.13405 7.07911 5.82149 7.39792C5.50893 7.71673 5.33333 8.14913 5.33333 8.6ZM7 15.4V12H17V15.4H7ZM17 8.6V10.3H7V8.6H17Z" fill="#FF7A2E"/>
</svg>
