<svg width="18" height="18" viewBox="0 0 18 18" fill="none" xmlns="http://www.w3.org/2000/svg">
<path d="M17.2295 0.687492C17.0643 0.580259 16.8795 0.506629 16.6858 0.470807C16.4922 0.434985 16.2933 0.437674 16.1007 0.47872C15.908 0.519766 15.7253 0.598364 15.5631 0.710026C15.4008 0.821687 15.2621 0.964224 15.155 1.12949L6.74999 14.085L2.65099 10.295C2.50637 10.1613 2.33683 10.0574 2.15205 9.98915C1.96727 9.92096 1.77086 9.88982 1.57405 9.89753C1.17656 9.9131 0.801543 10.0859 0.531486 10.378C0.26143 10.6701 0.118458 11.0574 0.134023 11.4549C0.149589 11.8524 0.322417 12.2274 0.614486 12.4975L5.99649 17.4735C5.99649 17.4735 6.15099 17.6065 6.22249 17.653C6.38773 17.7603 6.5725 17.834 6.76624 17.8699C6.95997 17.9057 7.15888 17.9031 7.35158 17.862C7.54429 17.821 7.72702 17.7423 7.88932 17.6306C8.05162 17.5189 8.19032 17.3763 8.29749 17.211L17.6715 2.76199C17.7787 2.59677 17.8524 2.41204 17.8882 2.21835C17.924 2.02467 17.9213 1.82582 17.8803 1.63317C17.8392 1.44053 17.7606 1.25785 17.649 1.09559C17.5373 0.933329 17.3948 0.794655 17.2295 0.687492Z" fill="white"/>
</svg>
