<svg width="24" height="24" viewBox="0 0 24 24" fill="none" xmlns="http://www.w3.org/2000/svg">
<path d="M5.00793 22C4.45575 22 3.98321 21.8043 3.59033 21.413C3.19678 21.021 3 20.55 3 20V4C3 3.45 3.19678 2.979 3.59033 2.587C3.98321 2.19567 4.45575 2 5.00793 2H12.2114C12.4791 2 12.7344 2.05 12.9774 2.15C13.2197 2.25 13.4328 2.39167 13.6169 2.575L18.4861 7.425C18.6702 7.60833 18.8124 7.82067 18.9128 8.062C19.0132 8.304 19.0634 8.55833 19.0634 8.825V14H17.0555V9H13.0396C12.7552 9 12.5169 8.904 12.3248 8.712C12.132 8.52067 12.0357 8.28333 12.0357 8V4H5.00793V20H14.0436V22H5.00793ZM20.2933 21.65L18.0594 19.425V20.65C18.0594 20.9333 17.9631 21.1707 17.7703 21.362C17.5782 21.554 17.3399 21.65 17.0555 21.65C16.771 21.65 16.5328 21.554 16.3407 21.362C16.1479 21.1707 16.0515 20.9333 16.0515 20.65V17C16.0515 16.7167 16.1479 16.4793 16.3407 16.288C16.5328 16.096 16.771 16 17.0555 16H20.7199C21.0044 16 21.243 16.096 21.4358 16.288C21.6279 16.4793 21.7239 16.7167 21.7239 17C21.7239 17.2833 21.6279 17.5207 21.4358 17.712C21.243 17.904 21.0044 18 20.7199 18H19.465L21.7239 20.25C21.908 20.4333 22 20.6627 22 20.938C22 21.2127 21.908 21.45 21.7239 21.65C21.5231 21.85 21.2848 21.95 21.0091 21.95C20.7327 21.95 20.4941 21.85 20.2933 21.65Z" fill="#FF7A2E"/>
</svg>
