<svg width="24" height="24" viewBox="0 0 24 24" fill="none" xmlns="http://www.w3.org/2000/svg">
<path d="M10.3848 7.464C11.0267 7.167 11.8653 7 12.7576 7C13.6498 7 14.4895 7.167 15.1304 7.464C15.7228 7.739 16.3636 8.24 16.3636 9C16.3636 9.76 15.7238 10.26 15.1304 10.536C14.4895 10.833 13.6498 11 12.7576 11C11.8653 11 11.0256 10.833 10.3848 10.536C9.79236 10.261 9.15152 9.76 9.15152 9C9.15152 8.24 9.79236 7.74 10.3848 7.464ZM10.9412 8.592C10.4621 8.814 10.4394 9 10.4394 9C10.4394 9 10.4621 9.186 10.9412 9.408C11.3728 9.608 12.0137 9.75 12.7576 9.75C13.5015 9.75 14.1423 9.609 14.574 9.408C15.0531 9.186 15.0758 9 15.0758 9C15.0758 9 15.0531 8.814 14.574 8.592C14.1423 8.392 13.5015 8.25 12.7576 8.25C12.0137 8.25 11.3728 8.391 10.9412 8.592ZM12.7576 12C14.2103 12 15.5085 11.567 16.3585 10.89C16.3616 10.927 16.3636 10.963 16.3636 11C16.3636 12.105 14.7492 13 12.7576 13C10.766 13 9.15152 12.105 9.15152 11C9.15152 10.963 9.15358 10.927 9.15667 10.89C10.0067 11.567 11.3048 12 12.7576 12ZM12.7576 14C14.2103 14 15.5085 13.567 16.3585 12.89C16.3616 12.927 16.3636 12.963 16.3636 13C16.3636 14.105 14.7492 15 12.7576 15C10.766 15 9.15152 14.105 9.15152 13C9.15152 12.963 9.15358 12.927 9.15667 12.89C10.0067 13.567 11.3048 14 12.7576 14ZM6.57576 2C5.89262 2 5.23747 2.26339 4.75442 2.73223C4.27137 3.20107 4 3.83696 4 4.5V19.5C4 20.163 4.27137 20.7989 4.75442 21.2678C5.23747 21.7366 5.89262 22 6.57576 22H20.2273C20.4322 22 20.6288 21.921 20.7737 21.7803C20.9186 21.6397 21 21.4489 21 21.25C21 21.0511 20.9186 20.8603 20.7737 20.7197C20.6288 20.579 20.4322 20.5 20.2273 20.5H6.57576C6.3025 20.5 6.04044 20.3946 5.84722 20.2071C5.654 20.0196 5.54545 19.7652 5.54545 19.5H20.2273C20.4322 19.5 20.6288 19.421 20.7737 19.2803C20.9186 19.1397 21 18.9489 21 18.75V4.5C21 4.1717 20.9334 3.84661 20.8039 3.54329C20.6745 3.23998 20.4848 2.96438 20.2456 2.73223C20.0064 2.50009 19.7224 2.31594 19.4099 2.1903C19.0974 2.06466 18.7625 2 18.4242 2H6.57576ZM19.4545 18H5.54545V4.5C5.54545 4.23478 5.654 3.98043 5.84722 3.79289C6.04044 3.60536 6.3025 3.5 6.57576 3.5H18.4242C18.6975 3.5 18.9596 3.60536 19.1528 3.79289C19.346 3.98043 19.4545 4.23478 19.4545 4.5V18Z" fill="#FF7A2E"/>
</svg>
