<svg width="24" height="24" viewBox="0 0 24 24" fill="none" xmlns="http://www.w3.org/2000/svg">
<path d="M12.5278 3.6908C12.3789 3.56741 12.1924 3.5 12 3.5C11.8076 3.5 11.6211 3.56741 11.4722 3.6908L8.41667 6.22218C8.25298 6.36616 8.15117 6.56906 8.13283 6.78782C8.1145 7.00658 8.18109 7.22395 8.31846 7.3938C8.45584 7.56365 8.65319 7.6726 8.86861 7.69752C9.08403 7.72243 9.30056 7.66135 9.47222 7.52725L12 5.43464L14.5278 7.52725C14.6119 7.60127 14.7099 7.65744 14.8159 7.69245C14.9219 7.72745 15.0337 7.74056 15.1448 7.73102C15.2558 7.72147 15.3639 7.68946 15.4625 7.63688C15.5612 7.58429 15.6484 7.5122 15.719 7.42488C15.7896 7.33755 15.8422 7.23677 15.8737 7.12849C15.9052 7.02021 15.9149 6.90663 15.9022 6.79449C15.8896 6.68235 15.8548 6.57391 15.8001 6.47561C15.7453 6.3773 15.6716 6.29113 15.5833 6.22218L12.5278 3.6908ZM15.5833 18.7778L12.5278 21.3092C12.3789 21.4326 12.1924 21.5 12 21.5C11.8076 21.5 11.6211 21.4326 11.4722 21.3092L8.41667 18.7778C8.25298 18.6338 8.15117 18.4309 8.13283 18.2122C8.1145 17.9934 8.18109 17.776 8.31846 17.6062C8.45584 17.4363 8.65319 17.3274 8.86861 17.3025C9.08403 17.2776 9.30056 17.3386 9.47222 17.4728L12 19.5654L14.5278 17.4716C14.6119 17.3976 14.7099 17.3414 14.8159 17.3064C14.9219 17.2714 15.0337 17.2583 15.1448 17.2679C15.2558 17.2774 15.3639 17.3094 15.4625 17.362C15.5612 17.4146 15.6484 17.4867 15.719 17.574C15.7896 17.6613 15.8422 17.7621 15.8737 17.8704C15.9052 17.9787 15.9149 18.0922 15.9022 18.2044C15.8896 18.3165 15.8548 18.425 15.8001 18.5233C15.7453 18.6216 15.6716 18.7089 15.5833 18.7778ZM12.8333 11.0937C12.8333 11.3175 12.7455 11.5321 12.5893 11.6903C12.433 11.8486 12.221 11.9375 12 11.9375C11.779 11.9375 11.567 11.8486 11.4107 11.6903C11.2545 11.5321 11.1667 11.3175 11.1667 11.0937C11.1667 10.8699 11.2545 10.6553 11.4107 10.497C11.567 10.3388 11.779 10.2499 12 10.2499C12.221 10.2499 12.433 10.3388 12.5893 10.497C12.7455 10.6553 12.8333 10.8699 12.8333 11.0937ZM12 14.7501C12.221 14.7501 12.433 14.6612 12.5893 14.503C12.7455 14.3447 12.8333 14.1301 12.8333 13.9063C12.8333 13.6825 12.7455 13.4679 12.5893 13.3097C12.433 13.1514 12.221 13.0625 12 13.0625C11.779 13.0625 11.567 13.1514 11.4107 13.3097C11.2545 13.4679 11.1667 13.6825 11.1667 13.9063C11.1667 14.1301 11.2545 14.3447 11.4107 14.503C11.567 14.6612 11.779 14.7501 12 14.7501ZM18.6667 11.9375C18.6667 11.4899 18.8423 11.0607 19.1548 10.7442C19.4674 10.4277 19.8913 10.2499 20.3333 10.2499C20.7754 10.2499 21.1993 10.4277 21.5118 10.7442C21.8244 11.0607 22 11.4899 22 11.9375V13.0625C22 13.5101 21.8244 13.9393 21.5118 14.2558C21.1993 14.5723 20.7754 14.7501 20.3333 14.7501C19.8913 14.7501 19.4674 14.5723 19.1548 14.2558C18.8423 13.9393 18.6667 13.5101 18.6667 13.0625V11.9375ZM20.3333 11.3749C20.186 11.3749 20.0447 11.4342 19.9405 11.5397C19.8363 11.6452 19.7778 11.7883 19.7778 11.9375V13.0625C19.7778 13.2117 19.8363 13.3548 19.9405 13.4603C20.0447 13.5658 20.186 13.6251 20.3333 13.6251C20.4807 13.6251 20.622 13.5658 20.7262 13.4603C20.8304 13.3548 20.8889 13.2117 20.8889 13.0625V11.9375C20.8889 11.7883 20.8304 11.6452 20.7262 11.5397C20.622 11.4342 20.4807 11.3749 20.3333 11.3749ZM8.11111 10.2499C7.66908 10.2499 7.24516 10.4277 6.9326 10.7442C6.62004 11.0607 6.44444 11.4899 6.44444 11.9375V13.0625C6.44444 13.5101 6.62004 13.9393 6.9326 14.2558C7.24516 14.5723 7.66908 14.7501 8.11111 14.7501C8.55314 14.7501 8.97706 14.5723 9.28962 14.2558C9.60218 13.9393 9.77778 13.5101 9.77778 13.0625V11.9375C9.77778 11.4899 9.60218 11.0607 9.28962 10.7442C8.97706 10.4277 8.55314 10.2499 8.11111 10.2499ZM7.55556 11.9375C7.55556 11.7883 7.61409 11.6452 7.71827 11.5397C7.82246 11.4342 7.96377 11.3749 8.11111 11.3749C8.25845 11.3749 8.39976 11.4342 8.50395 11.5397C8.60814 11.6452 8.66667 11.7883 8.66667 11.9375V13.0625C8.66667 13.2117 8.60814 13.3548 8.50395 13.4603C8.39976 13.5658 8.25845 13.6251 8.11111 13.6251C7.96377 13.6251 7.82246 13.5658 7.71827 13.4603C7.61409 13.3548 7.55556 13.2117 7.55556 13.0625V11.9375ZM14.2222 11.9375C14.2222 11.4899 14.3978 11.0607 14.7104 10.7442C15.0229 10.4277 15.4469 10.2499 15.8889 10.2499C16.3309 10.2499 16.7548 10.4277 17.0674 10.7442C17.38 11.0607 17.5556 11.4899 17.5556 11.9375V13.0625C17.5556 13.5101 17.38 13.9393 17.0674 14.2558C16.7548 14.5723 16.3309 14.7501 15.8889 14.7501C15.4469 14.7501 15.0229 14.5723 14.7104 14.2558C14.3978 13.9393 14.2222 13.5101 14.2222 13.0625V11.9375ZM15.8889 11.3749C15.7415 11.3749 15.6002 11.4342 15.4961 11.5397C15.3919 11.6452 15.3333 11.7883 15.3333 11.9375V13.0625C15.3333 13.2117 15.3919 13.3548 15.4961 13.4603C15.6002 13.5658 15.7415 13.6251 15.8889 13.6251C16.0362 13.6251 16.1775 13.5658 16.2817 13.4603C16.3859 13.3548 16.4444 13.2117 16.4444 13.0625V11.9375C16.4444 11.7883 16.3859 11.6452 16.2817 11.5397C16.1775 11.4342 16.0362 11.3749 15.8889 11.3749ZM3.66667 10.2499C3.22464 10.2499 2.80072 10.4277 2.48816 10.7442C2.17559 11.0607 2 11.4899 2 11.9375V13.0625C2 13.5101 2.17559 13.9393 2.48816 14.2558C2.80072 14.5723 3.22464 14.7501 3.66667 14.7501C4.10869 14.7501 4.53262 14.5723 4.84518 14.2558C5.15774 13.9393 5.33333 13.5101 5.33333 13.0625V11.9375C5.33333 11.4899 5.15774 11.0607 4.84518 10.7442C4.53262 10.4277 4.10869 10.2499 3.66667 10.2499ZM3.11111 11.9375C3.11111 11.7883 3.16964 11.6452 3.27383 11.5397C3.37802 11.4342 3.51932 11.3749 3.66667 11.3749C3.81401 11.3749 3.95532 11.4342 4.0595 11.5397C4.16369 11.6452 4.22222 11.7883 4.22222 11.9375V13.0625C4.22222 13.2117 4.16369 13.3548 4.0595 13.4603C3.95532 13.5658 3.81401 13.6251 3.66667 13.6251C3.51932 13.6251 3.37802 13.5658 3.27383 13.4603C3.16964 13.3548 3.11111 13.2117 3.11111 13.0625V11.9375Z" fill="#FF7A2E"/>
</svg>
