<svg width="24" height="24" viewBox="0 0 24 24" fill="none" xmlns="http://www.w3.org/2000/svg">
<path d="M13.0487 2.24804L21.1032 6.30619C22.2989 6.90807 22.2989 8.54052 21.1032 9.14134L19.6743 9.86188L21.1032 10.5824C22.2989 11.1843 22.2989 12.8168 21.1032 13.4176L19.6743 14.1381L21.1032 14.8587C22.2989 15.4605 22.2989 17.093 21.1032 17.6938L13.0487 21.752C12.7256 21.9149 12.3656 22 12 22C11.6344 22 11.2744 21.9149 10.9513 21.752L2.89675 17.6938C1.70108 17.0919 1.70108 15.4605 2.89675 14.8587L4.32685 14.1381L2.89675 13.4176C1.70108 12.8157 1.70108 11.1843 2.89675 10.5824L4.32685 9.86188L2.89675 9.14134C1.70108 8.53945 1.70108 6.90807 2.89675 6.30619L10.9513 2.24804C11.2744 2.08515 11.6344 2 12 2C12.3656 2 12.7256 2.08515 13.0487 2.24804ZM17.274 15.3472L13.0487 17.4757C12.7256 17.6386 12.3656 17.7238 12 17.7238C11.6344 17.7238 11.2744 17.6386 10.9513 17.4757L6.72604 15.3483L4.88318 16.2762L12 19.8619L19.1179 16.2762L17.274 15.3472ZM17.274 11.071L13.0487 13.2006C12.7557 13.348 12.432 13.4318 12.101 13.4459C11.7699 13.4599 11.4397 13.4039 11.1341 13.2818L10.9513 13.2006L6.72604 11.071L4.88318 12.0011L12 15.5846L19.1179 12L17.274 11.071ZM12 4.13813L4.88318 7.72376L12 11.3094L19.1179 7.72376L12 4.13813Z" fill="#FF7A2E"/>
</svg>
