<svg width="24" height="24" viewBox="0 0 24 24" fill="none" xmlns="http://www.w3.org/2000/svg">
<path d="M8.66666 14.7222C8.66666 16.5634 11.6511 18.0556 15.3333 18.0556C19.0155 18.0556 22 16.5634 22 14.7222C22 12.8811 19.0155 11.3889 15.3333 11.3889C11.6511 11.3889 8.66666 12.8811 8.66666 14.7222Z" stroke="#FF7A2E" stroke-width="2" stroke-linecap="round" stroke-linejoin="round"/>
<path d="M8.66667 14.7222V19.1667C8.66667 21.0067 11.6511 22.5 15.3333 22.5C19.0156 22.5 22 21.0067 22 19.1667V14.7222M2 5.83333C2 7.02444 3.27111 8.12444 5.33333 8.72C7.39556 9.31556 9.93778 9.31556 12 8.72C14.0622 8.12444 15.3333 7.02444 15.3333 5.83333C15.3333 4.64222 14.0622 3.54222 12 2.94667C9.93778 2.35111 7.39556 2.35111 5.33333 2.94667C3.27111 3.54222 2 4.64222 2 5.83333Z" stroke="#FF7A2E" stroke-width="2" stroke-linecap="round" stroke-linejoin="round"/>
<path d="M2 5.83331V16.9444C2 17.9311 2.85778 18.5555 4.22222 19.1666" stroke="#FF7A2E" stroke-width="2" stroke-linecap="round" stroke-linejoin="round"/>
<path d="M2 11.3889C2 12.3756 2.85778 13 4.22222 13.6111" stroke="#FF7A2E" stroke-width="2" stroke-linecap="round" stroke-linejoin="round"/>
</svg>
