<svg width="24" height="24" viewBox="0 0 24 24" fill="none" xmlns="http://www.w3.org/2000/svg">
<path d="M10.25 13.3C10.4333 13.4833 10.6667 13.575 10.95 13.575C11.2333 13.575 11.4667 13.4833 11.65 13.3L15.925 9.025C16.1083 8.84167 16.1917 8.61667 16.175 8.35C16.1583 8.08333 16.0583 7.85 15.875 7.65C15.6917 7.45 15.4627 7.354 15.188 7.362C14.9127 7.37067 14.675 7.475 14.475 7.675L10.95 11.2L9.475 9.725C9.29167 9.54167 9.06267 9.454 8.788 9.462C8.51267 9.47067 8.28333 9.56667 8.1 9.75C7.91667 9.93333 7.825 10.1667 7.825 10.45C7.825 10.7333 7.91667 10.9667 8.1 11.15L10.25 13.3ZM9 17H15.025C15.3083 17 15.5417 16.904 15.725 16.712C15.9083 16.5207 16 16.2833 16 16C16 15.7167 15.9043 15.479 15.713 15.287C15.521 15.0957 15.2833 15 15 15H8.975C8.69167 15 8.45833 15.0957 8.275 15.287C8.09167 15.479 8 15.7167 8 16C8 16.2833 8.096 16.5207 8.288 16.712C8.47933 16.904 8.71667 17 9 17ZM12 22C10.6167 22 9.31667 21.7373 8.1 21.212C6.88333 20.6873 5.825 19.975 4.925 19.075C4.025 18.175 3.31267 17.1167 2.788 15.9C2.26267 14.6833 2 13.3833 2 12C2 10.6167 2.26267 9.31667 2.788 8.1C3.31267 6.88333 4.025 5.825 4.925 4.925C5.825 4.025 6.88333 3.31233 8.1 2.787C9.31667 2.26233 10.6167 2 12 2C13.3833 2 14.6833 2.26233 15.9 2.787C17.1167 3.31233 18.175 4.025 19.075 4.925C19.975 5.825 20.6873 6.88333 21.212 8.1C21.7373 9.31667 22 10.6167 22 12C22 13.3833 21.7373 14.6833 21.212 15.9C20.6873 17.1167 19.975 18.175 19.075 19.075C18.175 19.975 17.1167 20.6873 15.9 21.212C14.6833 21.7373 13.3833 22 12 22ZM12 20C14.2167 20 16.1043 19.221 17.663 17.663C19.221 16.1043 20 14.2167 20 12C20 9.78333 19.221 7.89567 17.663 6.337C16.1043 4.779 14.2167 4 12 4C9.78333 4 7.896 4.779 6.338 6.337C4.77933 7.89567 4 9.78333 4 12C4 14.2167 4.77933 16.1043 6.338 17.663C7.896 19.221 9.78333 20 12 20Z" fill="#FF7A2E"/>
</svg>
