<svg width="22" height="20" viewBox="0 0 22 20" fill="none" xmlns="http://www.w3.org/2000/svg">
<path d="M1 4.375C1 3.47989 1.35119 2.62145 1.97631 1.98851C2.60143 1.35558 3.44928 1 4.33333 1H17.6667C18.5507 1 19.3986 1.35558 20.0237 1.98851C20.6488 2.62145 21 3.47989 21 4.375V15.625C21 16.5201 20.6488 17.3786 20.0237 18.0115C19.3986 18.6444 18.5507 19 17.6667 19H4.33333C3.44928 19 2.60143 18.6444 1.97631 18.0115C1.35119 17.3786 1 16.5201 1 15.625V4.375Z" stroke="#FF7A2E" stroke-width="2" stroke-linecap="round" stroke-linejoin="round"/>
<path d="M14.3333 5.5H16.5556M14.3333 10H16.5556M5.44446 14.5H16.5556M5.44446 7.75C5.44446 8.34674 5.67858 8.91903 6.09533 9.34099C6.51208 9.76295 7.07731 10 7.66668 10C8.25605 10 8.82128 9.76295 9.23803 9.34099C9.65478 8.91903 9.8889 8.34674 9.8889 7.75C9.8889 7.15326 9.65478 6.58097 9.23803 6.15901C8.82128 5.73705 8.25605 5.5 7.66668 5.5C7.07731 5.5 6.51208 5.73705 6.09533 6.15901C5.67858 6.58097 5.44446 7.15326 5.44446 7.75Z" stroke="#FF7A2E" stroke-width="2" stroke-linecap="round" stroke-linejoin="round"/>
</svg>
